# xmcd
#
# Track frame offsets:
#	150
#	13987
#	35780
#	49594
#	59322
#	72312
#	84539
#	95535
#	106122
#	116991
#	130302
#	143828
#	161187
#	172872
#	183379
# Disc length: 2591 seconds
# Revision: 6
# Processed by: cddbd v1.5.1PL0 Copyright (c) Steve Scherf et al.
#
# Submitted via: libkcddb 0.10
#
DISCID=d50a1d0f
DTITLE=Various Artist - Rhythm and Blues CD1
DYEAR=1989
DGENRE=Blues
TTITLE0=Blues Brothers_Soul man
TTITLE1=Ray Charles_What'd I say
TTITLE2=Eddie Floyd_Knock on wood
TTITLE3=Aretha Franklin_Think
TTITLE4=Booker T. and the MG's_Green Onions
TTITLE5=Otis Redding_The dock of the bay
TTITLE6=Wilson Pickett_Land of 1000 dances
TTITLE7=Arthur Conley_Sweet soul music
TTITLE8=Aretha Franklin_Respect
TTITLE9=King Curtis_Memphis soul stew
TTITLE10=Otis Redding-Carla Thomas_Tramps
TTITLE11=Brook Benton_Raining night in Georgia
TTITLE12=Ray Charles_Hallelujah, I love her so
TTITLE13=Bar Kays_Soul finger
TTITLE14=Wilson Pickett_In the midnight hour
EXTD=YEAR: 1989 ID3G: 0
EXTT0=
EXTT1=
EXTT2=
EXTT3=
EXTT4=
EXTT5=
EXTT6=
EXTT7=
EXTT8=
EXTT9=
EXTT10=
EXTT11=
EXTT12=
EXTT13=
EXTT14=
PLAYORDER=
